<svg width="72" height="36" viewBox="0 0 72 36" fill="none" xmlns="http://www.w3.org/2000/svg">
<path d="M18.104 35.816C12.152 35.816 7.768 34.376 4.952 31.496C2.168 28.584 0.776 24.056 0.776 17.912C0.776 12.024 2.168 7.688 4.952 4.904C7.768 2.12 12.152 0.727998 18.104 0.727998C23.992 0.727998 28.328 2.12 31.112 4.904C33.896 7.688 35.288 12.024 35.288 17.912C35.288 24.056 33.896 28.584 31.112 31.496C28.328 34.376 23.992 35.816 18.104 35.816ZM18.104 29.048C21.368 29.048 23.704 28.2 25.112 26.504C26.52 24.776 27.224 21.912 27.224 17.912C27.224 14.168 26.504 11.496 25.064 9.896C23.656 8.264 21.336 7.448 18.104 7.448C14.808 7.448 12.44 8.264 11 9.896C9.56 11.496 8.84 14.168 8.84 17.912C8.84 21.912 9.56 24.776 11 26.504C12.44 28.2 14.808 29.048 18.104 29.048ZM49.0625 28.28H71.9585V35H40.5185V32.408C40.5185 29.784 41.1265 27.512 42.3425 25.592C43.5585 23.672 45.5105 22.024 48.1985 20.648L61.0625 14.072C62.0545 13.56 62.7425 13.064 63.1265 12.584C63.5425 12.104 63.7505 11.512 63.7505 10.808C63.7505 8.568 61.3505 7.448 56.5505 7.448C53.8625 7.448 51.8945 7.848 50.6465 8.648C49.3985 9.416 48.7425 10.664 48.6785 12.392H41.1425C41.3025 8.36 42.6305 5.416 45.1265 3.56C47.6225 1.672 51.3665 0.727998 56.3585 0.727998C61.3825 0.727998 65.2065 1.576 67.8305 3.272C70.4865 4.968 71.8145 7.416 71.8145 10.616C71.8145 12.472 71.3345 14.024 70.3745 15.272C69.4465 16.52 67.9425 17.672 65.8625 18.728L53.0465 25.256C50.9025 26.312 49.5745 27.32 49.0625 28.28Z" fill="white" fill-opacity="0.83"/>
</svg>
