<svg width="73" height="36" viewBox="0 0 73 36" fill="none" xmlns="http://www.w3.org/2000/svg">
<path d="M18.104 35.816C12.152 35.816 7.768 34.376 4.952 31.496C2.168 28.584 0.776 24.056 0.776 17.912C0.776 12.024 2.168 7.688 4.952 4.904C7.768 2.12 12.152 0.727998 18.104 0.727998C23.992 0.727998 28.328 2.12 31.112 4.904C33.896 7.688 35.288 12.024 35.288 17.912C35.288 24.056 33.896 28.584 31.112 31.496C28.328 34.376 23.992 35.816 18.104 35.816ZM18.104 29.048C21.368 29.048 23.704 28.2 25.112 26.504C26.52 24.776 27.224 21.912 27.224 17.912C27.224 14.168 26.504 11.496 25.064 9.896C23.656 8.264 21.336 7.448 18.104 7.448C14.808 7.448 12.44 8.264 11 9.896C9.56 11.496 8.84 14.168 8.84 17.912C8.84 21.912 9.56 24.776 11 26.504C12.44 28.2 14.808 29.048 18.104 29.048ZM64.9025 17.048V18.056C67.2705 18.568 69.0625 19.528 70.2785 20.936C71.5265 22.312 72.1505 24.072 72.1505 26.216C72.1505 29.384 70.7745 31.784 68.0225 33.416C65.3025 35.016 61.3025 35.816 56.0225 35.816C45.5905 35.816 40.1025 32.184 39.5585 24.92H47.3345C47.8145 27.864 50.6785 29.336 55.9265 29.336C58.7105 29.336 60.7585 28.984 62.0705 28.28C63.4145 27.576 64.0865 26.472 64.0865 24.968C64.0865 22.216 61.1585 20.84 55.3025 20.84H50.4545V14.408H55.3025C60.6145 14.408 63.2705 13.16 63.2705 10.664C63.2705 8.36 60.8545 7.208 56.0225 7.208C51.1585 7.208 48.5345 8.616 48.1505 11.432H40.4225C40.9985 4.296 46.2945 0.727998 56.3105 0.727998C61.2065 0.727998 64.9185 1.48 67.4465 2.984C70.0065 4.456 71.2865 6.648 71.2865 9.56C71.2865 11.384 70.7745 12.904 69.7505 14.12C68.7265 15.304 67.1105 16.28 64.9025 17.048Z" fill="white" fill-opacity="0.83"/>
</svg>
