<svg width="75" height="36" viewBox="0 0 75 36" fill="none" xmlns="http://www.w3.org/2000/svg">
<path d="M18.104 35.816C12.152 35.816 7.768 34.376 4.952 31.496C2.168 28.584 0.776 24.056 0.776 17.912C0.776 12.024 2.168 7.688 4.952 4.904C7.768 2.12 12.152 0.727998 18.104 0.727998C23.992 0.727998 28.328 2.12 31.112 4.904C33.896 7.688 35.288 12.024 35.288 17.912C35.288 24.056 33.896 28.584 31.112 31.496C28.328 34.376 23.992 35.816 18.104 35.816ZM18.104 29.048C21.368 29.048 23.704 28.2 25.112 26.504C26.52 24.776 27.224 21.912 27.224 17.912C27.224 14.168 26.504 11.496 25.064 9.896C23.656 8.264 21.336 7.448 18.104 7.448C14.808 7.448 12.44 8.264 11 9.896C9.56 11.496 8.84 14.168 8.84 17.912C8.84 21.912 9.56 24.776 11 26.504C12.44 28.2 14.808 29.048 18.104 29.048ZM68.6465 21.608H74.5025V28.28H68.6465V35H60.5345V28.28H39.1265V21.896C43.1585 15.368 45.3825 8.584 45.7985 1.544H53.7665C53.2865 8.296 51.3985 14.984 48.1025 21.608H60.5345V11.048H68.6465V21.608Z" fill="white" fill-opacity="0.83"/>
</svg>
