<svg width="73" height="36" viewBox="0 0 73 36" fill="none" xmlns="http://www.w3.org/2000/svg">
<path d="M18.104 35.816C12.152 35.816 7.768 34.376 4.952 31.496C2.168 28.584 0.776 24.056 0.776 17.912C0.776 12.024 2.168 7.688 4.952 4.904C7.768 2.12 12.152 0.727998 18.104 0.727998C23.992 0.727998 28.328 2.12 31.112 4.904C33.896 7.688 35.288 12.024 35.288 17.912C35.288 24.056 33.896 28.584 31.112 31.496C28.328 34.376 23.992 35.816 18.104 35.816ZM18.104 29.048C21.368 29.048 23.704 28.2 25.112 26.504C26.52 24.776 27.224 21.912 27.224 17.912C27.224 14.168 26.504 11.496 25.064 9.896C23.656 8.264 21.336 7.448 18.104 7.448C14.808 7.448 12.44 8.264 11 9.896C9.56 11.496 8.84 14.168 8.84 17.912C8.84 21.912 9.56 24.776 11 26.504C12.44 28.2 14.808 29.048 18.104 29.048ZM57.3665 12.632C62.3585 12.632 66.1345 13.608 68.6945 15.56C71.2545 17.512 72.5345 20.392 72.5345 24.2C72.5345 31.944 67.0945 35.816 56.2145 35.816C45.8145 35.816 40.4225 31.992 40.0385 24.344H47.9585C48.1185 26.104 48.8225 27.384 50.0705 28.184C51.3505 28.952 53.3345 29.336 56.0225 29.336C58.9025 29.336 61.0145 28.936 62.3585 28.136C63.7345 27.336 64.4225 26.056 64.4225 24.296C64.4225 20.808 61.6545 19.064 56.1185 19.064C53.3985 19.064 50.9825 19.448 48.8705 20.216L41.7185 19.592L43.3985 1.496H69.8945V8.264H50.5505L50.0225 13.592C52.3905 12.952 54.8385 12.632 57.3665 12.632Z" fill="white" fill-opacity="0.83"/>
</svg>
