<svg width="99" height="48" viewBox="0 0 99 48" fill="none" xmlns="http://www.w3.org/2000/svg">
<path d="M23.472 47.088C15.536 47.088 9.69067 45.168 5.936 41.328C2.224 37.4453 0.368 31.408 0.368 23.216C0.368 15.3653 2.224 9.584 5.936 5.872C9.69067 2.16 15.536 0.303997 23.472 0.303997C31.3227 0.303997 37.104 2.16 40.816 5.872C44.528 9.584 46.384 15.3653 46.384 23.216C46.384 31.408 44.528 37.4453 40.816 41.328C37.104 45.168 31.3227 47.088 23.472 47.088ZM23.472 38.064C27.824 38.064 30.9387 36.9333 32.816 34.672C34.6933 32.368 35.632 28.5493 35.632 23.216C35.632 18.224 34.672 14.6613 32.752 12.528C30.8747 10.352 27.7813 9.264 23.472 9.264C19.0773 9.264 15.92 10.352 14 12.528C12.08 14.6613 11.12 18.224 11.12 23.216C11.12 28.5493 12.08 32.368 14 34.672C15.92 36.9333 19.0773 38.064 23.472 38.064ZM90.862 28.144H98.67V37.04H90.862V46H80.046V37.04H51.502V28.528C56.878 19.824 59.8433 10.7787 60.398 1.392H71.022C70.382 10.3947 67.8647 19.312 63.47 28.144H80.046V14.064H90.862V28.144Z" fill="#D5D5D5"/>
</svg>
