<svg width="96" height="48" viewBox="0 0 96 48" fill="none" xmlns="http://www.w3.org/2000/svg">
<path d="M23.472 47.088C15.536 47.088 9.69067 45.168 5.936 41.328C2.224 37.4453 0.368 31.408 0.368 23.216C0.368 15.3653 2.224 9.584 5.936 5.872C9.69067 2.16 15.536 0.303997 23.472 0.303997C31.3227 0.303997 37.104 2.16 40.816 5.872C44.528 9.584 46.384 15.3653 46.384 23.216C46.384 31.408 44.528 37.4453 40.816 41.328C37.104 45.168 31.3227 47.088 23.472 47.088ZM23.472 38.064C27.824 38.064 30.9387 36.9333 32.816 34.672C34.6933 32.368 35.632 28.5493 35.632 23.216C35.632 18.224 34.672 14.6613 32.752 12.528C30.8747 10.352 27.7813 9.264 23.472 9.264C19.0773 9.264 15.92 10.352 14 12.528C12.08 14.6613 11.12 18.224 11.12 23.216C11.12 28.5493 12.08 32.368 14 34.672C15.92 36.9333 19.0773 38.064 23.472 38.064ZM85.87 22.064V23.408C89.0273 24.0907 91.4167 25.3707 93.038 27.248C94.702 29.0827 95.534 31.4293 95.534 34.288C95.534 38.512 93.6993 41.712 90.03 43.888C86.4033 46.0213 81.07 47.088 74.03 47.088C60.1207 47.088 52.8033 42.2453 52.078 32.56H62.446C63.086 36.4853 66.9047 38.448 73.902 38.448C77.614 38.448 80.3447 37.9787 82.094 37.04C83.886 36.1013 84.782 34.6293 84.782 32.624C84.782 28.9547 80.878 27.12 73.07 27.12H66.606V18.544H73.07C80.1527 18.544 83.694 16.88 83.694 13.552C83.694 10.48 80.4727 8.944 74.03 8.944C67.5447 8.944 64.046 10.8213 63.534 14.576H53.23C53.998 5.06133 61.0593 0.303997 74.414 0.303997C80.942 0.303997 85.8913 1.30666 89.262 3.312C92.6753 5.27466 94.382 8.19733 94.382 12.08C94.382 14.512 93.6993 16.5387 92.334 18.16C90.9687 19.7387 88.814 21.04 85.87 22.064Z" fill="#D5D5D5"/>
</svg>
