<svg width="46" height="45" viewBox="0 0 46 45" fill="none" xmlns="http://www.w3.org/2000/svg">
<circle cx="23.2768" cy="22.4177" r="22.4177" fill="white"/>
<g clip-path="url(#clip0_145_25)">
<path d="M23.4143 17.4877C20.4675 17.4877 18.0906 19.8646 18.0906 22.8114C18.0906 25.7583 20.4675 28.1352 23.4143 28.1352C26.3612 28.1352 28.7381 25.7583 28.7381 22.8114C28.7381 19.8646 26.3612 17.4877 23.4143 17.4877ZM23.4143 26.2726C21.51 26.2726 19.9532 24.7204 19.9532 22.8114C19.9532 20.9025 21.5054 19.3503 23.4143 19.3503C25.3233 19.3503 26.8755 20.9025 26.8755 22.8114C26.8755 24.7204 25.3187 26.2726 23.4143 26.2726ZM30.1976 17.2699C30.1976 17.9603 29.6416 18.5117 28.9559 18.5117C28.2655 18.5117 27.7141 17.9557 27.7141 17.2699C27.7141 16.5842 28.2701 16.0282 28.9559 16.0282C29.6416 16.0282 30.1976 16.5842 30.1976 17.2699ZM33.7236 18.5302C33.6448 16.8668 33.2649 15.3934 32.0463 14.1795C30.8324 12.9655 29.359 12.5856 27.6956 12.5022C25.9812 12.4049 20.8428 12.4049 19.1285 12.5022C17.4697 12.5809 15.9963 12.9609 14.7777 14.1748C13.5591 15.3888 13.1838 16.8622 13.1004 18.5256C13.0031 20.2399 13.0031 25.3783 13.1004 27.0927C13.1792 28.7561 13.5591 30.2295 14.7777 31.4434C15.9963 32.6574 17.4651 33.0373 19.1285 33.1207C20.8428 33.218 25.9812 33.218 27.6956 33.1207C29.359 33.0419 30.8324 32.662 32.0463 31.4434C33.2603 30.2295 33.6402 28.7561 33.7236 27.0927C33.8209 25.3783 33.8209 20.2445 33.7236 18.5302ZM31.5088 28.9321C31.1474 29.8403 30.4478 30.5399 29.535 30.906C28.1682 31.4481 24.9248 31.323 23.4143 31.323C21.9039 31.323 18.6559 31.4434 17.2936 30.906C16.3855 30.5445 15.6859 29.8449 15.3198 28.9321C14.7777 27.5653 14.9028 24.3219 14.9028 22.8114C14.9028 21.301 14.7824 18.053 15.3198 16.6907C15.6812 15.7826 16.3809 15.083 17.2936 14.7169C18.6605 14.1748 21.9039 14.2999 23.4143 14.2999C24.9248 14.2999 28.1728 14.1795 29.535 14.7169C30.4432 15.0783 31.1428 15.778 31.5088 16.6907C32.051 18.0576 31.9259 21.301 31.9259 22.8114C31.9259 24.3219 32.051 27.5699 31.5088 28.9321Z" fill="#021D29"/>
</g>
<defs>
<clipPath id="clip0_145_25">
<rect width="20.7575" height="23.7229" fill="white" transform="translate(13.0309 10.9546)"/>
</clipPath>
</defs>
</svg>
