<svg width="96" height="48" viewBox="0 0 96 48" fill="none" xmlns="http://www.w3.org/2000/svg">
<path d="M23.472 47.088C15.536 47.088 9.69067 45.168 5.936 41.328C2.224 37.4453 0.368 31.408 0.368 23.216C0.368 15.3653 2.224 9.584 5.936 5.872C9.69067 2.16 15.536 0.303997 23.472 0.303997C31.3227 0.303997 37.104 2.16 40.816 5.872C44.528 9.584 46.384 15.3653 46.384 23.216C46.384 31.408 44.528 37.4453 40.816 41.328C37.104 45.168 31.3227 47.088 23.472 47.088ZM23.472 38.064C27.824 38.064 30.9387 36.9333 32.816 34.672C34.6933 32.368 35.632 28.5493 35.632 23.216C35.632 18.224 34.672 14.6613 32.752 12.528C30.8747 10.352 27.7813 9.264 23.472 9.264C19.0773 9.264 15.92 10.352 14 12.528C12.08 14.6613 11.12 18.224 11.12 23.216C11.12 28.5493 12.08 32.368 14 34.672C15.92 36.9333 19.0773 38.064 23.472 38.064ZM64.75 37.04H95.278V46H53.358V42.544C53.358 39.0453 54.1687 36.016 55.79 33.456C57.4113 30.896 60.014 28.6987 63.598 26.864L80.75 18.096C82.0727 17.4133 82.99 16.752 83.502 16.112C84.0567 15.472 84.334 14.6827 84.334 13.744C84.334 10.7573 81.134 9.264 74.734 9.264C71.15 9.264 68.526 9.79733 66.862 10.864C65.198 11.888 64.3233 13.552 64.238 15.856H54.19C54.4033 10.48 56.174 6.55467 59.502 4.08C62.83 1.56266 67.822 0.303997 74.478 0.303997C81.1767 0.303997 86.2753 1.43466 89.774 3.696C93.3153 5.95733 95.086 9.22133 95.086 13.488C95.086 15.9627 94.446 18.032 93.166 19.696C91.9287 21.36 89.9233 22.896 87.15 24.304L70.062 33.008C67.2033 34.416 65.4327 35.76 64.75 37.04Z" fill="#D5D5D5"/>
</svg>
