<svg width="46" height="45" viewBox="0 0 46 45" fill="none" xmlns="http://www.w3.org/2000/svg">
<circle cx="23.1359" cy="22.4177" r="22.4177" fill="white"/>
<g clip-path="url(#clip0_145_19)">
<path d="M17.0045 32.3344H12.0662V16.4353H17.0045V32.3344ZM14.5327 14.2665C12.9539 14.2665 11.6729 12.9588 11.6729 11.3801C11.6729 10.6216 11.9742 9.89421 12.5105 9.35789C13.0468 8.82157 13.7742 8.52026 14.5327 8.52026C15.2912 8.52026 16.0186 8.82157 16.5549 9.35789C17.0912 9.89421 17.3925 10.6216 17.3925 11.3801C17.3925 12.9588 16.1114 14.2665 14.5327 14.2665ZM35.4817 32.3344H30.5541V24.5948C30.5541 22.7503 30.5169 20.3848 27.9866 20.3848C25.4192 20.3848 25.0258 22.3888 25.0258 24.4619V32.3344H20.0929V16.4353H24.8291V18.6041H24.8982C25.5574 17.3549 27.168 16.0366 29.5707 16.0366C34.5674 16.0366 35.487 19.327 35.487 23.6008V32.3344H35.4817Z" fill="#021D29"/>
</g>
<defs>
<clipPath id="clip0_145_19">
<rect width="23.8142" height="27.2162" fill="white" transform="translate(11.6729 8.52026)"/>
</clipPath>
</defs>
</svg>
