<svg width="97" height="48" viewBox="0 0 97 48" fill="none" xmlns="http://www.w3.org/2000/svg">
<path d="M23.472 47.088C15.536 47.088 9.69067 45.168 5.936 41.328C2.224 37.4453 0.368 31.408 0.368 23.216C0.368 15.3653 2.224 9.584 5.936 5.872C9.69067 2.16 15.536 0.303997 23.472 0.303997C31.3227 0.303997 37.104 2.16 40.816 5.872C44.528 9.584 46.384 15.3653 46.384 23.216C46.384 31.408 44.528 37.4453 40.816 41.328C37.104 45.168 31.3227 47.088 23.472 47.088ZM23.472 38.064C27.824 38.064 30.9387 36.9333 32.816 34.672C34.6933 32.368 35.632 28.5493 35.632 23.216C35.632 18.224 34.672 14.6613 32.752 12.528C30.8747 10.352 27.7813 9.264 23.472 9.264C19.0773 9.264 15.92 10.352 14 12.528C12.08 14.6613 11.12 18.224 11.12 23.216C11.12 28.5493 12.08 32.368 14 34.672C15.92 36.9333 19.0773 38.064 23.472 38.064ZM75.822 16.176C82.478 16.176 87.5127 17.4773 90.926 20.08C94.3393 22.6827 96.046 26.5227 96.046 31.6C96.046 41.9253 88.7927 47.088 74.286 47.088C60.4193 47.088 53.23 41.9893 52.718 31.792H63.278C63.4913 34.1387 64.43 35.8453 66.094 36.912C67.8007 37.936 70.446 38.448 74.03 38.448C77.87 38.448 80.686 37.9147 82.478 36.848C84.3127 35.7813 85.23 34.0747 85.23 31.728C85.23 27.0773 81.5393 24.752 74.158 24.752C70.5313 24.752 67.31 25.264 64.494 26.288L54.958 25.456L57.198 1.328H92.526V10.352H66.734L66.03 17.456C69.1873 16.6027 72.4513 16.176 75.822 16.176Z" fill="#D5D5D5"/>
</svg>
