<svg width="45" height="45" viewBox="0 0 45 45" fill="none" xmlns="http://www.w3.org/2000/svg">
<circle cx="22.4177" cy="22.4177" r="22.4177" fill="white"/>
<path d="M26.5834 34V29.5828C26.6273 29.0384 26.5522 28.491 26.3631 27.9772C26.174 27.4634 25.8752 26.9951 25.4867 26.6034C29.15 26.2034 33 24.8456 33 18.6147C32.9997 17.0205 32.3731 15.4874 31.25 14.3336C31.7817 12.9395 31.7441 11.3983 31.145 10.0307C31.145 10.0307 29.7683 9.63067 26.5834 11.7198C23.9093 11.0108 21.0908 11.0108 18.4167 11.7198C15.2317 9.63067 13.8551 10.0307 13.8551 10.0307C13.256 11.3983 13.2184 12.9395 13.7501 14.3336C12.6189 15.4957 11.9917 17.0421 12.0001 18.6479C12.0001 24.8342 15.8501 26.1931 19.5134 26.6377C19.1298 27.0256 18.8338 27.4884 18.6449 27.9958C18.456 28.5033 18.3782 29.044 18.4167 29.5828V34" stroke="#021D29" stroke-width="2.17" stroke-linecap="round" stroke-linejoin="round"/>
<path d="M18 30.5986C12.2857 32.3978 12.2857 27.6006 10 27" stroke="#021D29" stroke-width="2.17" stroke-linecap="round" stroke-linejoin="round"/>
</svg>
